<svg aria-hidden="true" style="position:absolute;width:0;height:0;overflow:hidden" xmlns="http://www.w3.org/2000/svg">
  <defs>
    <symbol id="icon-dreamworks" viewBox="0 0 49 32">
      <path d="M38.873 28.249c-.145.068-.328.082-.573.082h-.107v-1.12c0-.194.023-.245.343-.245.299 0 .765.192.765.659 0 .238-.115.467-.428.623zm8.97-.312-.169-.049c-.502-.136-.794-.282-.794-.525 0-.234.277-.424.671-.424.609 0 .88.346 1.049.667l.339-.034a8.57 8.57 0 0 1-.169-.759c-.101-.02-.224-.039-.402-.068a4.12 4.12 0 0 0-.7-.058h-.01.001c-1.212 0-1.844.447-1.844.998 0 .52.709.779 1.35.959l.116.034c.478.126.771.297.771.584 0 .316-.308.482-.709.482-.756 0-1.212-.54-1.373-.822l-.34.063c.083.291.172.532.233.739-.255-.03-.46-.106-.819-.413-.478-.409-.98-.857-1.451-1.319.319-.238.699-.487 1.109-.739.395-.248.631-.309 1.064-.338v-.154H43.73v.154l.288.02c.205.014.122.147.015.235-.44.37-.904.73-1.458 1.129v-.759c0-.526.062-.596.562-.625v-.154h-2.37v.154c.532.029.592.099.592.625v1.606c0 .31-.022.484-.14.552-.177.082-.303.029-.434-.068-.122-.098-.29-.299-.551-.557a9.727 9.727 0 0 1-.611-.696c.565-.141.987-.394.987-.822 0-.288-.229-.506-.535-.628-.298-.122-.696-.166-1.292-.166h-2.431l.045.154c.512.029.529.099.529.625v1.606c0 .525-.061.595-.604.625v.154h2.462v-.154c-.528-.029-.589-.099-.589-.625v-.584h.099c.145 0 .252.073.321.175.192.272.406.574.635.783.305.283.553.464 1.618.443.081 0 .384-.022.454-.039h1.855v-.154c-.539-.029-.615-.099-.6-.625v-.779h.016c.554.531 1.347 1.246 1.636 1.558h1.748v-.101c.074.022.208.053.342.082l.054.01c.25.052.538.082.832.083h.001c1.196 0 1.96-.438 1.96-1.038 0-.569-.609-.822-1.32-1.022z"/>
      <path d="M34.435 29.743c-.764 0-1.294-.642-1.294-1.523 0-.852.499-1.281 1.099-1.281.67 0 1.232.541 1.232 1.519 0 .881-.367 1.285-1.038 1.285zm-18.406-.991.463-.942h.023l.47.942h-.957zm-6.537-.433c-.143.069-.323.084-.564.084h-.105v-1.134c0-.198.023-.248.338-.248.293 0 .751.193.751.667 0 .241-.112.474-.42.631zm-5.934 1.337c-.517 0-.753-.148-.753-.735v-2.535c0-.165.01-.317.064-.33.075-.026.216-.047.463-.047.915 0 2.089.396 2.089 1.815 0 1.169-.937 1.831-1.863 1.831zm33.365-1.354c0-.964-1.099-1.616-2.526-1.616-1.122 0-1.873.329-2.294.764.258-.499.429-.816.452-.855.363-.587.46-.643 1.057-.697v-.225H31.06v.225l.406.027c.46.027.491.136.352.517a34.58 34.58 0 0 1-.918 2.118l-.021-.036-1.623-2.845h-.748l-1.399 2.845-.022.036-1.014-2.244c-.128-.274-.096-.357.299-.39l.342-.027v-.225h-3.332v.225c.491.04.683.103.971.657l.131.254h-1.591l-1.19 1.953-1.361-1.953h-1.828v.156c.614.035.677.125.622.746l-.085.997c-.039.449-.086.71-.125.863-.013.052-.022.116-.068.126-.053.008-.171-.176-.272-.358.075.19-.233-.357-.537-.906l-.39-.767-.509-.932-.516.069-1.495 2.55a2.343 2.343 0 0 1-.056.092l.006-.01c-.057.075-.115.17-.174.21-.167.119-.599.148-.903.148-.236 0-.41-.005-.532-.044-.136-.045-.152-.204-.152-.46v-.804h.38c.653 0 .676.03.752.463h.334v-1.164h-.334c-.076.375-.099.404-.752.404h-.38v-.952c0-.173.016-.208.304-.208h.129c.403 0 .653.029.775.113.121.079.205.253.281.495l.334-.015c-.037-.37-.076-.73-.083-.814h-3.599v.156c.508.03.569.1.569.633v1.627c0 .469-.048.552-.458.586a1.13 1.13 0 0 1-.213-.133l.002.002a7.897 7.897 0 0 1-.541-.528 10.276 10.276 0 0 1-.601-.705c.556-.143.969-.399.969-.834 0-.291-.226-.513-.526-.636-.293-.124-.683-.168-1.269-.168H7.102a2.19 2.19 0 0 0-.627-.543c-.722-.43-1.82-.587-3.144-.587H.186v.257c.7.04.786.086.786.799v2.178c0 .713-.086.796-.872.835v.222h2.778c2.487 0 4.522-.707 4.522-2.351 0-.228-.069-.445-.185-.641.356.039.403.15.403.62v1.627c0 .533-.06.604-.593.633v.157h2.374v-.157c-.518-.029-.579-.1-.579-.633v-.592h.098a.37.37 0 0 1 .316.177c.188.277.398.582.624.795.3.286.548.434 1.615.448.155-.005.252-.023.306-.039h4.361v-.157l-.217-.015c-.344-.025-.351-.11-.247-.322l.225-.473h1.226l.269.503c.097.178.082.262-.194.287l-.224.02v.157h3.302v-.157c-.506-.025-.677-.105-.709-.287-.031-.153-.039-.39-.016-.813l.055-1.095h.016l1.423 2.298h.42l1.502-2.471h.031l.023 1.736c.008.548-.015.599-.599.633v.157h2.435v-.157c-.561-.034-.576-.085-.599-.633l-.078-1.652c-.02-.447.001-.55.389-.591l1.585 3.08h.822l1.431-2.712h.021l1.57 2.712h.822a49.31 49.31 0 0 1 1.056-2.209l-.181.393c-.005.042-.009.09-.009.139 0 .895 1.021 1.611 2.596 1.611 1.497 0 2.635-.652 2.635-1.694zM.043 31.56h14.232v-.179H.043v.179z"/>
      <path d="M.094 31.509h14.13v-.078H.094v.078zm-.051.101h-.05v-.28h14.333v.28H.044zm34.788-.053h14.232v-.179H34.831v.179z"/>
      <path d="M34.881 31.507h14.132v-.078H34.881v.078zm-.05.101h-.051v-.281h14.334v.281H34.831zm-19.834-.106h.335l-.165-.334h-.008l-.162.334zm.332.378.079-.006c.097-.009.102-.026.068-.089l-.095-.178h-.429l-.079.168c-.034.075-.034.093.087.102l.076.005v.069h-.611v-.069c.134-.012.173-.019.259-.166l.524-.904.181-.025.178.331c.266.511.374.705.483.898l-.159-.305c.084.152.132.161.26.171v.069h-.824v-.069zm2.452.081h-.225l-.97-.825h-.005v.322c0 .184.011.28.021.334.013.061.084.084.257.089v.069h-.653v-.069c.116-.003.184-.027.197-.089.011-.054.021-.15.021-.334v-.322c0-.129-.005-.152-.058-.201-.039-.036-.105-.049-.199-.054v-.068h.579l.873.725h.005v-.234c0-.184-.011-.28-.02-.334-.013-.062-.084-.084-.257-.09v-.068h.669v.068c-.131.004-.199.028-.213.09a1.89 1.89 0 0 0-.021.334v.657zm.992-.291c0 .188.02.201.202.211v.069h-.85v-.069c.181-.01.202-.023.202-.211v-.577c0-.189-.021-.201-.202-.212v-.068h.85v.068c-.181.011-.202.023-.202.212v.577zm2.489-.857v.068c-.199.013-.209.02-.202.203l.026.586c.008.194.013.199.202.211v.069h-.82v-.069c.196-.012.205-.017.202-.211l-.008-.616h-.011l-.506.876h-.141l-.48-.814h-.005l-.019.388a1.24 1.24 0 0 0 .006.288c.01.064.068.081.238.089v.069h-.648v-.069c.126-.007.176-.025.192-.089.013-.054.029-.147.042-.306l.029-.354c.018-.22-.002-.239-.21-.252v-.068h.616l.459.693.401-.693h.637zm.655.689h.335l-.165-.334h-.008l-.163.334zm.333.378.078-.006c.097-.009.102-.026.068-.089l-.095-.178h-.43l-.078.168c-.034.075-.034.093.087.102l.076.005v.069h-.611v-.069c.133-.012.173-.019.259-.166l.524-.904.181-.025.178.331c.266.51.374.704.483.897l-.158-.305c.084.152.131.161.26.171v.069h-.824v-.069zm1.592-.21c0 .188.021.201.241.211v.069h-.918v-.069c.21-.01.231-.023.231-.211v-.766h-.044c-.176 0-.247.021-.289.052-.031.026-.063.072-.097.169h-.11c.011-.147.026-.267.031-.356h.081c.039.04.066.044.136.044h1.047c.068 0 .081-.01.123-.044h.081c.003.074.016.222.029.352l-.116.005c-.039-.104-.068-.149-.108-.18-.044-.031-.131-.042-.257-.042h-.063v.766zm1.306 0c0 .188.021.201.202.211v.069h-.85v-.069c.181-.01.202-.023.202-.211v-.577c0-.189-.021-.201-.202-.212v-.068h.85v.068c-.181.011-.202.023-.202.212v.577zm.855-.332c0 .316.178.546.436.546.226 0 .349-.145.349-.461 0-.351-.19-.545-.415-.545-.202 0-.37.154-.37.46zm1.272.029c0 .374-.383.608-.886.608-.53 0-.873-.257-.873-.579 0-.283.283-.61.91-.61.48 0 .85.234.85.581zm1.725.594h-.226l-.97-.825h-.005v.322c0 .184.011.28.021.334.013.061.084.084.257.089v.069h-.654v-.069c.116-.003.184-.027.197-.089.011-.054.021-.15.021-.334v-.322c0-.129-.005-.152-.058-.201-.039-.036-.104-.049-.199-.054v-.068h.58l.873.725h.005v-.234c0-.184-.01-.28-.021-.334-.013-.062-.084-.084-.257-.09v-.068h.668v.068c-.131.004-.199.028-.212.09-.011.054-.021.15-.021.334v.657zm.976-.372c.055.101.21.295.466.295.137 0 .242-.059.242-.173 0-.102-.102-.161-.263-.209l-.039-.013c-.215-.066-.458-.157-.458-.344 0-.198.215-.359.627-.359.081 0 .165.007.241.021.061.011.102.017.137.025.011.068.029.154.057.272l-.115.013c-.058-.115-.15-.24-.356-.24-.134 0-.228.068-.228.152 0 .088.102.139.27.189l.057.018c.242.074.448.162.448.367 0 .215-.259.372-.666.372-.1 0-.198-.011-.292-.031l.009.002a1.737 1.737 0 0 1-.165-.043c-.021-.08-.055-.174-.087-.292l.116-.023zm1.846.081c0 .188.021.201.207.211v.069h-.818v-.069c.171-.01.191-.023.191-.211v-.577c0-.189-.02-.201-.205-.212v-.068h.818v.068c-.173.011-.194.023-.194.212v.273c.191-.143.354-.276.513-.415l-.01.008c.038-.032.066-.066-.005-.071l-.099-.008v-.068h.703v.068c-.15.011-.231.02-.367.109-.15.095-.275.182-.396.275l.013-.009c.159.161.322.316.491.465l.011.009c.142.125.188.143.296.151v.069h-.604a16.59 16.59 0 0 0-.54-.559h-.006v.279z"/>
      <path d="M34.363 31.155c-.078-.23-.296-.278-.466-.278-.278 0-.509.184-.509.482 0 .271.172.524.535.524.065 0 .107-.013.107-.096v-.168c0-.117-.01-.13-.286-.143v-.079h.876v.079c-.134.015-.144.021-.144.143v.126c0 .063.003.119.016.159-.162.03-.375.07-.592.07-.628 0-1-.225-1-.582 0-.4.477-.607 1.036-.607.202 0 .408.03.501.046.008.06.021.15.042.318l-.115.005zM22.18 21.481s-.142.209-.274.354c-.13.145-.17.22-.079.274s.172.117.369.247c-.054.315-.277.797-.423 1.082s-.318.587-.461.732c-.144.144-.476.43-.686.642-.211.209-.456.363-.6.387-.263.044-.344-.155-.38-.106-.162.223-.076.453.225.492.1.013.161.117.346.196.185.078.463.012.62-.065.156-.081.5-.286.751-.415s.507-.119.797-.144c.241-.022.267-.429.179-.629-.127-.301-.028-.524.123-.882.151-.355.544-.746.544-.746s.105-.053.282.073c.169.122.203-.073.421-.333.177-.21.366-.438.255-.539-.132-.122-.096-.173-.096-.173s.13-.168.266-.276l-2.18-.172z"/>
      <path d="M29.128 16.551s1.663-1.236 2.31-4.72c.391-2.106.225-4.144-.708-6.169C29.357 2.681 26.047.587 22.88.247c5.284-1.2 10.044 1.898 11.86 5.786 1.766 3.786 1.616 7.749-1.118 11.449-.566.764-3.812 4.462-9.575 4.268-.407.072-1.413-.128-1.724-.246 0 0-.521-.2-1.154-.476-.642-.279-2.15-1.105-3.03-1.907.737.438 2.059.916 3.312 1.027.789-.096 4.928-.823 7.678-3.597z"/>
      <path d="M27.028 13.326c.047-.118-.3.044-.364.076-.206.104-.343-.067-.309-.16.04-.113.013-.188-.071-.176-.069.01-.084-.081-.045-.134-.07 0-.102-.052-.116-.089.1-.039.008-.145-.033-.161s-.131-.032-.14-.105c-.007-.073.067-.166.14-.215.075-.048.105-.134.021-.284-.069-.125-.106-.351-.04-.433-.148.017-.222.194-.222.194-.098-.177-.041-.357-.008-.445-.05.049-.132.194-.132.194.107-.939 1.211-1.332 1.508-1.397.546-.12 1.401-.146 1.27.282 0 0 .173-.338-.148-.428.181-.009.327.195.254.324.091-.058.255-.097.312-.017-.091.008-.27.105-.279.178.164-.033.333.063.459.615.057.251.156 1.062-.198 1.329 0 0 .017-.049.026-.113 0 0-.049.195-.321.195 0 0-.021.085-.005.133 0 0 .326-.125.456-.077 0 0-.148.292-.212.405.212 0 .856.416.898 1.378.099.161.213 1.097.099 1.517-.911 2.893-7.531 4.555-8.663 4.19 0 0-.318-.243-.054-.389.088-.05.026.026.22.081.128.034.225-.002.379-.088.169-.095.513-.174.752-.343.237-.171.419-.209.672-.685.052-.099.082-.236.103-.404.004-.036-.018-.019-.251-.104-.133-.049-.238.015-.238-.22s.095-.611.12-.703c.027-.09.111-.103.349-.09.102-.219.189-.607.253-.821 0 0-.067.012-.214.012-.151 0-.212.105-.459.186-.246.082-.378.059-.427-.097-.065-.21-.065-.308-.131-.454-.048-.106-.213-.096-.18-.21s.082-.163.148-.196c.082-.08.279-.064.459-.226.181-.163.286.009.345.13.05.102.067.115.18.258.057.074.262.026.393 0l.115-.469c-.081-.016-.426-.081-.804-.275-.376-.194-.655-.373-.803-.357-.527.058-.391-.04-.639-.422-.147-.226-.115-.241-.295-.323-.233-.106-.081-.341.016-.324.098.016.263-.081.41-.113-.046-.231.019-.365.23-.341-.05.146.164.454.41.534.246.081.343.486.343.567.23.228 1.298.212 1.528.212.117-.184.159-.233.607-.233.284 0 .518.069.73.317.2.064.035-.119.379-.158.343-.037.511-.184.657-.225s.143-.129.25-.218c.061-.052.113-.174.2-.217s.077-.325.109-.377zm-2.893 5.201s-.077.376-.003.696c.21-.053.375-.221.535-.287s.594-.174.89-.321c0 0 .003-.056-.103-.213-.078-.116-.249-.69-.416-1.304 0 0-.061-.433-.126-.404-.044.018-.059.529-.08.75-.026.271-.014.179-.014.179s.171.026.145.118c-.033.114-.148.755-.191.862-.033.085-.049.051-.199.019-.185-.039-.437-.095-.437-.095zm2.848-1.682c.086-.139.06-.19.101-.469.018-.389-.117-.693-.117-.693l-.622.177c.186.252.406.767.638.985z"/>
      <path d="M10.908 6.33c3.754.454 11.788 7.364 11.86 9.468l-.287.049c-.885-3.156-9.374-9.302-11.573-9.279V6.33zm11.759 10.075c.026.055.134.334.144.382.009.047.322.103.256-.121a3.233 3.233 0 0 0-.154-.418l.008.02-.254.136zm12.321 14.438v.046h-.077v.211h-.054v-.211h-.077v-.046h.209zm.202 0h.077v.257h-.05v-.195l.001-.02-.049.216h-.051l-.049-.216v.02a.186.186 0 0 1 .001.022v.174h-.05v-.257h.078l.047.203.047-.203z"/>
      <path d="M10.996 25.586h.188V6.458h-.188v19.128z"/>
    </symbol>
    <symbol id="icon-paramount" viewBox="0 0 47 32">
      <path d="M14.011 22.614c0-2.167-2.3-3.212-5.031-3.212-2.922 0-5.603 1.295-6.588 3.302a3.752 3.752 0 0 0-.412 1.723v.004l-.001.062c0 .522.154 1.007.419 1.414l-.006-.01c.422.623 1.174 1.014 2.279 1.014 1.356 0 2.43-.743 2.43-2.038 0 0 .02-.361-.402-.361-.341 0-.432.241-.422.361.051 1.014-.552 1.827-1.627 1.827-1.204 0-1.707-1.024-1.707-2.118 0-2.239 1.687-3.724 3.444-4.366a6.893 6.893 0 0 1 2.576-.451h-.005c1.989 0 3.615.763 3.615 2.811 0 1.706-1.436 3.161-3.153 3.292l.07-.231c.351-1.255.783-2.63 1.486-3.643a3.71 3.71 0 0 1 .191-.261l-.101-.12c-.165.1-.306.2-.44.307l.008-.006c-3.293 2.569-3.393 9.796-7.782 9.796a3.42 3.42 0 0 1-.452-.03c-.914-.15-1.396-.763-1.396-1.616 0-.171.06-.402.06-.532v-.012a.439.439 0 0 0-.426-.439H.581c-.392 0-.552.311-.563.753-.03 1.275.914 2.017 2.37 2.158.161.01.321.02.492.02 3.424 0 5.522-2.589 6.417-5.731.453-.053.9-.147 1.336-.281 1.587-.442 3.374-1.506 3.374-3.383zm32.616.752h-1.205l-.271.632-.472 1.064h-.562l-.172.362h.583l-.703 1.556c-.501 1.094-1.285 2.168-1.737 2.168-.1 0-.161-.04-.161-.14s.03-.191.141-.472c.141-.332.372-.813.543-1.164.251-.512.653-1.305.653-1.696s-.251-.703-.743-.703c-.552 0-1.054.332-1.517.813l.301-.723h-1.134l-.924 2.108c-.371.743-1.124 1.977-1.597 1.977-.1 0-.141-.06-.141-.161a.909.909 0 0 1 .07-.261c.04-.09.593-1.385.593-1.385l1.004-2.299h-1.225l-.974 2.238c-.301.692-1.064 1.867-1.556 1.867a.157.157 0 0 1-.171-.14v-.04c0-.12.09-.341.161-.502l.512-1.124 1.054-2.299h-1.215l-.242.522c-.18.351-.482.763-.964.763-.231 0-.341-.09-.392-.18-.07-.773-.563-1.185-1.286-1.185-1.004 0-1.717.592-2.189 1.315-.29.459-.536.988-.71 1.548l-.013.048c-.432.713-.884 1.265-1.245 1.265-.09 0-.151-.051-.151-.171s.12-.392.161-.492l.794-1.686c.221-.521.372-.863.372-1.204 0-.362-.251-.623-.663-.623-.572 0-1.195.332-1.687.873.017-.086.023-.174.02-.261 0-.401-.201-.612-.612-.612-.522 0-1.064.312-1.556.874l.321-.783h-1.105l-.934 2.108c-.442.994-1.155 1.977-1.556 1.977-.09 0-.15-.051-.15-.171 0-.191.211-.662.291-.853l1.235-2.8c.09-.21-.502-.341-1.255-.341s-1.567.381-2.149.873c-.412.341-.713.512-.864.512a.092.092 0 0 1-.111-.09c0-.171.412-.653.412-1.024 0-.171-.09-.281-.321-.281-.442 0-.964.422-1.345.863l.321-.773h-1.084l-.934 2.108c-.442.994-1.175 2.027-1.577 2.027-.09 0-.15-.05-.15-.171 0-.191.201-.652.311-.893l1.235-2.81c.09-.21-.502-.341-1.256-.341-1.115 0-2.199.753-2.772 1.526-.632.833-1.064 1.716-1.075 2.439-.01.582.291.943.893.943.673 0 1.215-.532 1.526-.934-.018.079-.032.16-.04.241 0 .401.161.692.653.692.432 0 1.004-.362 1.466-.934l-.372.853h1.175l1.155-2.62c.382-.853.814-1.295.934-1.295a.05.05 0 0 1 .059.04l.001.01c0 .09-.18.332-.18.552s.12.392.442.392c.251 0 .532-.12.783-.281-.593.803-.995 1.646-.995 2.339-.01.582.291.943.894.943.632 0 1.225-.602 1.546-1.003a2.398 2.398 0 0 0-.02.281c0 .392.221.723.673.723.502 0 .904-.311 1.406-.923l-.372.843h1.205l1.105-2.499c.482-1.084 1.135-1.666 1.456-1.666.08-.008.153.05.161.131v.03c-.014.13-.05.249-.103.358l.003-.006-1.585 3.664h1.235l1.124-2.55c.482-1.094 1.014-1.626 1.416-1.626.12 0 .171.061.171.191-.011.14-.048.277-.111.402l-1.085 2.308a2.08 2.08 0 0 0-.18.695l-.001.008c0 .351.191.663.733.663.703 0 1.235-.532 1.837-1.325v.17c.051.632.402 1.185 1.336 1.185 1.105 0 1.999-.763 2.54-1.977a4.28 4.28 0 0 0 .392-1.355.75.75 0 0 0 .392.081h.012c.187 0 .363-.048.516-.133l-.005.003-.191.412a53.16 53.16 0 0 0-.653 1.405c-.115.237-.19.514-.211.806v.007c0 .431.241.743.733.743s1.165-.462 1.647-1.114h.01a1.904 1.904 0 0 0-.051.412c0 .362.111.703.613.703.583 0 1.034-.422 1.477-.954l-.372.844h1.215l.974-2.208c.552-1.245 1.105-1.997 1.616-1.997a.167.167 0 0 1 .172.15v.029c0 .211-.301.783-.572 1.355-.252.522-.442.923-.572 1.234a2.306 2.306 0 0 0-.211.825v.007c0 .381.211.673.683.673.703 0 1.416-.682 1.796-1.194a2.432 2.432 0 0 0-.14.759v.003c0 .703.421 1.054 1.014 1.054a1.882 1.882 0 0 0 1.095-.361c.461-.321.834-.803 1.145-1.245l-.211-.201c-.291.412-.613.803-.945 1.044a1.02 1.02 0 0 1-.621.241h-.002c-.251 0-.411-.131-.411-.452s.15-.753.381-1.335c.01-.01.341-.753.653-1.465.261-.603.522-1.185.572-1.305h.793l.161-.362h-.783l.743-1.697zm-34.252 5.792c-.171 0-.291-.06-.291-.281.01-.592.502-1.646 1.115-2.489.431-.582.994-1.014 1.597-1.014l-.764 1.706c-.572 1.285-1.195 2.078-1.657 2.078zm7.511 0c-.171 0-.291-.06-.301-.281.01-.592.502-1.646 1.115-2.489.431-.582.994-1.014 1.597-1.014l-.764 1.706c-.582 1.315-1.174 2.078-1.647 2.078zm13.335-3.322c-.03.652-.602 2.228-1.275 3.172-.271.381-.502.491-.703.491-.282 0-.362-.231-.322-.572.06-.592.552-1.977 1.235-2.931.311-.431.522-.612.764-.612s.311.201.301.452zM23.34 16.01c-.123-.051-.325-.277.011-.908l.78-1.63c.023-.049-.033-.111-.069-.069l-.682.686c-.323.337-.87 1.284-.976 1.459l-.828 1.369a.111.111 0 0 1 .101.166l-.757 1.272c-.185.315.147.536.192.464 1.19-1.917 1.882-1.764 1.882-1.764l.398-.92a.092.092 0 0 0-.045-.121l-.006-.002z"/>
      <path d="M26.046-.007c-6.805 0-12.321 5.514-12.321 12.315v.016c0 2.748.904 5.284 2.432 7.328l-.023-.032c.517-.223.804-.557 1.009-.812l2.294-2.933a.464.464 0 0 1 .183-.142l.345-.149 3.772-4.782.547-.428 1.124-1.564a.502.502 0 0 1 .105-.106l.491-.356a.348.348 0 0 1 .408-.003l-.001-.001.595.417c.315.222.571.518.745.862l2.384 4.185c.04.08.104.142.184.178l.002.001c.467.233.753.274 1.365.938.285.31 1.537 1.708 3.29 3.881.254.345.588.618.974.795l.016.006a12.162 12.162 0 0 0 2.401-7.283v-.021.001C38.366 5.505 32.85-.008 26.046-.008zm-8.998 12.993-.799-.26-.494.679v-.839l-.799-.26.799-.26v-.839l.494.679.799-.26-.494.679.494.678zm-.19 2.747-.26.798-.26-.798h-.84l.679-.494-.26-.798.679.494.679-.494-.26.798.679.494h-.84zm.161-6.357.26.798-.679-.494-.679.494.26-.798-.679-.494h.84l.26-.798.26.798h.84l-.679.494zm1.349-2.645v.839l-.493-.678-.799.26.494-.679-.494-.679.799.26.494-.679v.839l.799.259-.799.26zm2.099-2.098-.26.797-.26-.798h-.84l.679-.494-.26-.798.679.493.679-.494-.26.799.679.494h-.84zm2.646-1.348-.494.679v-.839l-.799-.26.799-.26v-.839l.494.679.799-.26-.494.679.494.679zm3.353-.769.26.798-.679-.494-.679.494.259-.798-.679-.494h.84l.26-.798.26.798h.84l-.679.493zm3.006.609v.839l-.494-.679-.799.26.494-.679-.494-.679.799.26.494-.679v.839l.799.26zm5.572 8.504.799.26.494-.679v.839l.799.26-.799.26v.839l-.494-.679-.799.26.494-.679zm.449-3.544.26.798h.84l-.679.494.26.798-.68-.494-.679.494.26-.798-.68-.494h.839l.26-.798zm-3.608-2.654-.26-.798h-.84l.679-.494-.259-.798.679.494.679-.493-.259.798.679.494h-.84l-.26.798zm1.84 2.14v-.839l-.799-.26.799-.259v-.84l.494.679.799-.26-.494.679.494.679-.799-.26zm2.028 8.162-.26.798-.26-.798h-.84l.68-.494-.26-.798.679.494.68-.494-.26.798.679.494h-.839z"/>
      <path d="M30.509 19.424c.059-.086.155-.322-.025-.759l-.545-1.466c-.074-.187.088-.301.197-.177 0 0 1.031 1.188 1.297 1.683l.508.844c.437.028 1.644.061 2.805.061a3.226 3.226 0 0 1-.317-.365l-.006-.009c-1.982-2.456-3.238-3.822-3.251-3.835-.402-.436-.588-.52-.893-.659a35.23 35.23 0 0 1-.142-.065v.373a.046.046 0 0 1-.04.051h-.005a.045.045 0 0 1-.042-.028l-2.922-5.132a1.66 1.66 0 0 0-.521-.604l-.284-.2-1.39 3.205a.301.301 0 0 1 .275.422l.001-.002-1.284 2.969h1.179c.456 0 .907.089 1.328.261l.311.128s-.937 1.928-.937 2.943c.001.185.027.368.076.546h2.161l-.1-.609c.848.189 1.705.331 2.569.423z"/>
    </symbol>
    <symbol id="icon-universal" viewBox="0 0 56 32">
      <path d="M2.211 18.213c-1.422 0-2.178-.911-2.186-2.634l-.018-3.97c0-.044.033-.08.076-.086l1.239-.119a.081.081 0 0 1 .065.023.077.077 0 0 1 .028.061l.018 3.921c.004.862.331 1.3.976 1.3.05 0 .102-.002.157-.01.755-.074 1.136-.586 1.132-1.527l-.018-3.921c0-.045.033-.08.077-.085L5 11.045a.088.088 0 0 1 .067.021.09.09 0 0 1 .027.064l.018 3.967c.005 1.065-.317 2.881-2.538 3.097a4.203 4.203 0 0 1-.363.017zm4.23-.566a.088.088 0 0 1-.058-.024.08.08 0 0 1-.026-.061l-.032-6.546c0-.047.034-.083.078-.086l1.321-.091a.082.082 0 0 1 .072.032l2.799 3.695-.017-3.847v-.003c0-.044.035-.08.078-.082l1.069-.076c.023 0 .047.007.064.025a.079.079 0 0 1 .027.061l.031 6.546v.003c0 .044-.035.08-.078.083l-1.097.076c-.028 0-.058-.01-.074-.031l-3.023-4.006.02 4.173a.082.082 0 0 1-.078.083l-1.076.076zm6.975-.451a.088.088 0 0 1-.058-.023.085.085 0 0 1-.028-.06l-.037-6.527c0-.045.034-.085.08-.086l1.422-.07a.087.087 0 0 1 .064.023.077.077 0 0 1 .027.06l.032 6.527a.089.089 0 0 1-.082.086l-1.419.07zm5.241-.221a.085.085 0 0 1-.078-.051v-.001l-2.783-6.445a.09.09 0 0 1 .009-.081.08.08 0 0 1 .069-.038l1.625-.049c.04.001.067.021.081.051l1.81 4.207 1.871-4.32a.087.087 0 0 1 .073-.052l1.283-.037c.033 0 .056.012.072.037.018.026.02.054.007.081l-2.852 6.612a.082.082 0 0 1-.076.05l-1.112.034zm5.034-.124a.085.085 0 0 1-.086-.083l-.038-6.527c0-.022.009-.044.024-.061a.093.093 0 0 1 .06-.025l5.232-.004c.047 0 .085.037.085.083l.006 1.271a.087.087 0 0 1-.024.06.087.087 0 0 1-.061.024l-3.644.004.005 1.13 2.449-.004c.047 0 .084.04.084.086l.006 1.279c0 .024-.009.047-.024.063s-.038.023-.06.023l-2.447.004.004 1.224 3.689-.005c.047 0 .085.04.085.087l.006 1.278a.076.076 0 0 1-.025.06.083.083 0 0 1-.06.026l-5.265.006zm8.464-3.825 1.161.036.151.001c.428 0 .678-.06.812-.197.109-.109.157-.279.157-.554-.004-.31-.061-.592-.768-.612l-1.517-.047zm4.14 4.024h-.004l-1.691-.051a.08.08 0 0 1-.07-.043l-1.433-2.463-.927-.028.011 2.374a.08.08 0 0 1-.027.061c-.014.016-.037.023-.061.026l-1.427-.044a.085.085 0 0 1-.083-.085v-.001l-.031-6.546c0-.023.01-.045.027-.061a.082.082 0 0 1 .058-.025h.004l3.592.108c1.191.037 1.878.795 1.884 2.085.006 1.242-.659 1.759-1.261 1.974l1.511 2.592c.007.012.012.027.012.043s-.004.031-.012.043a.078.078 0 0 1-.072.042zm3.717.381h-.006c-.095 0-.188-.003-.281-.009l.013.001c-1.012-.053-2.069-.686-2.367-.88a.076.076 0 0 1-.04-.07l-.007-1.51a.085.085 0 0 1 .132-.07c.916.612 1.791 1.006 2.284 1.034.468.024.778-.045.934-.201a.397.397 0 0 0 .111-.298c0-.147-.151-.29-.474-.451-.191-.098-.418-.191-.659-.29-1.02-.419-2.418-.992-2.424-2.537-.002-.515.159-.942.483-1.268.417-.418 1.086-.631 1.836-.591.882.049 1.934.5 2.427.793.026.015.04.044.04.074l.009 1.462a.083.083 0 0 1-.045.075.081.081 0 0 1-.087-.003c-.304-.2-1.367-.851-2.345-.903-.347-.018-.52.073-.594.149a.258.258 0 0 0-.083.186c0 .158.157.319.478.491.192.103.439.207.7.316 1.005.424 2.381 1.003 2.387 2.392.004.62-.175 1.114-.534 1.473-.417.42-1.051.634-1.886.634zm5.236-2.636 1.184.086-.582-1.602zm3.694 3.05-.006-.001-1.408-.103c-.034-.004-.063-.023-.073-.056l-.474-1.317-2.291-.169-.485 1.239a.083.083 0 0 1-.078.054h-.007l-1.18-.087a.094.094 0 0 1-.068-.038.084.084 0 0 1-.012-.045c0-.012.002-.023.006-.033v.001l2.529-6.415a.087.087 0 0 1 .082-.055h.005l.987.074a.082.082 0 0 1 .073.056v.001l2.479 6.782a.074.074 0 0 1-.01.078.085.085 0 0 1-.069.036zm5.054.467h-.009l-4.059-.374a.086.086 0 0 1-.076-.085v-.001l-.039-6.623c0-.026.009-.048.027-.065a.09.09 0 0 1 .06-.022h.006l1.227.114c.043.004.077.04.077.084v.001l.024 5.247 2.762.255c.043.004.076.04.077.086l.005 1.298a.083.083 0 0 1-.026.064.083.083 0 0 1-.057.022h-.001zM9.957 31.165l.153.32h-.313zm-.09-.402-.604 1.21h.292l.121-.241h.552l.114.241h.346l-.578-1.21zm3.696 1.242c-.338 0-.68-.197-.68-.637 0-.442.342-.64.68-.64.219 0 .418.087.455.105l.031.015v.281l-.078-.042c-.034-.017-.212-.107-.407-.107-.279 0-.353.244-.353.387s.074.384.353.384c.214 0 .309-.05.385-.088l.109-.056v.292l-.054.021c-.1.039-.227.086-.44.086zm2.063-1.024c-.281 0-.355.244-.355.387s.075.384.355.384c.282 0 .355-.24.355-.384s-.074-.387-.355-.387zm0 1.024c-.338 0-.681-.197-.681-.637 0-.442.343-.64.681-.64s.681.197.681.64c0 .44-.343.637-.681.637zm1.921-.033v-.607l.303.607h.175l.288-.604v.604h.313v-1.21h-.293l-.359.754-.38-.754h-.303v1.21zm2.743.033c-.34 0-.68-.197-.68-.637 0-.442.341-.64.68-.64.221 0 .417.087.453.105l.031.015v.281l-.077-.042a.966.966 0 0 0-.407-.107c-.281 0-.354.244-.354.387s.074.384.354.384c.214 0 .309-.05.384-.088l.109-.056v.292l-.054.021a1.094 1.094 0 0 1-.439.086zm1.963-.84.154.32h-.313zm-.088-.402-.605 1.21h.294l.119-.241h.552l.115.241h.344l-.58-1.21zm2.15 1.242c-.165 0-.359-.06-.478-.123l-.029-.015v-.291l.077.044c.121.063.315.13.43.13.157 0 .235-.039.235-.112 0-.059-.143-.103-.297-.151l-.018-.006c-.23-.07-.445-.17-.445-.411 0-.21.191-.344.489-.344.179 0 .397.064.489.107l.029.015v.281l-.077-.04a1.157 1.157 0 0 0-.441-.109c-.096 0-.158.032-.158.078 0 .066.098.101.261.151.04.011.082.024.124.04.124.042.379.129.379.357 0 .149-.076.398-.57.398zm2.136-.998h.414v-.244h-1.141v.244h.413v.966h.314zm3.292.998c-.337 0-.679-.197-.679-.637 0-.442.342-.64.679-.64.221 0 .419.087.456.105l.028.015v.281l-.077-.042a.961.961 0 0 0-.407-.107c-.278 0-.354.244-.354.387s.076.384.354.384c.214 0 .31-.05.386-.088l.107-.056v.292l-.053.021c-.1.039-.226.086-.44.086zm2.061-1.024c-.279 0-.353.244-.353.387s.073.384.353.384c.283 0 .357-.24.357-.384s-.074-.387-.357-.387zm0 1.024c-.337 0-.679-.197-.679-.637 0-.442.342-.64.679-.64.341 0 .683.197.683.64 0 .44-.342.637-.683.637zm1.915-.033v-.607l.303.607h.176l.288-.604v.604h.315v-1.21h-.297l-.358.754-.38-.754h-.304v1.21zm2.426-.584h.23c.208 0 .256-.039.256-.213 0-.071-.02-.167-.194-.167h-.293zm0 .583h-.313v-1.21h.657c.322 0 .479.135.479.413 0 .407-.284.46-.534.46h-.289zm2.293-.806.153.32h-.313zm-.09-.402-.604 1.21h.293l.119-.241h.554l.114.241h.344l-.58-1.21zm1.952 1.209v-.799l.703.799h.26v-1.21h-.256v.739l-.652-.739h-.311v1.21zm2.372 0h.316v-.44l.566-.77h-.311l-.373.496-.359-.496h-.386l.547.766zM29.965.901C29.276.733 28.52.861 28.541.89c-.073-.024-.214-.075-.294-.058-.011.001-.017.004-.026.007l.048.021c-.048.018-.069-.006-.109-.015.026.036.021.029-.001.066.001.005.004.01.007.016.11.026.218.069.374.051V.969c-.033-.033-.109-.039-.148-.07h-.015V.892a.678.678 0 0 1 .257.11.136.136 0 0 1 .032-.021c-.027.042-.055.053-.04.096-.167-.026-.289-.086-.354.098l.055.047-.04.013-.009.045a.504.504 0 0 0 .188.125l.013.098c.02.017.02.014.048.009.035.034.011.06.029.082.045.059.218.145.256.197.013.016.003.05.032.069.061.042.134.066.188.114.02.011.005.001 0 .021.123.058.311.053.414.115.021.021.01.007.009.037l.321.088a.745.745 0 0 0 .023-.006h-.001c.007-.028.005-.029-.006-.055.064-.036.08-.105.126-.154-.022-.04-.031-.044-.023-.101.088-.012.115-.06.189-.077-.009-.043-.004-.053-.039-.07.021-.016.016-.009.048.001.009-.007.015-.016.023-.023l-.071-.062h-.015v-.009c.042.012.086.02.132.012.006-.002.012-.004.017-.009-.011-.011-.021-.024-.032-.038.004-.004.006-.005.006-.007.061.033.098.036.189.037.006-.021.012-.039.016-.06l.04-.005c-.015.018-.027.038-.04.058.003.006.006.011.007.016.184.042.31-.029.485-.059v-.045c.209-.06.509.067.713.051.06-.004-.749-.522-1.598-.73zm-9.277 17.262c.093.154.179.366.299.491.254.26.669.401.828.734.077.076.152.151.228.224l-.015.119.002-.013c.013.104.061.251.044.364-.006.05-.024.114-.021.17.009.033.017.069.024.104-.018.105-.063.216-.065.346-.032.013-.012.006-.055 0a3.685 3.685 0 0 1-.007.124l.001-.011h.038l-.027.21.024.21c-.01.028-.054.039-.061.081l.017.079c-.013.143-.04.267-.081.348-.043.088.001.173-.076.224.015.11.05.169.043.289-.031.01-.017.007-.055.007-.017.264.114.407.032.601.012.006.043.082.031.113-.063.173-.142.338-.157.542l-.023-.016.001.104a.965.965 0 0 0-.07-.024l-.007.007c.015.145.085.3.143.422-.006.167-.104.218.021.404v.033c-.013-.009-.027-.016-.039-.026-.026.077.016.158-.006.246.027.033.058.04.103.056.006-.004.015-.006.022-.009a.342.342 0 0 0-.033-.246l.016-.015c.017.009.037.015.054.023h.007c-.004-.034.015-.028-.015-.031a.529.529 0 0 0 .015-.033c.012.017.027.032.04.049l-.026.032c.039.026.059.114.011.134a.93.93 0 0 0 .039.032c-.022.135.002.228.002.371h-.015c-.011-.043-.043-.162-.024-.173a.25.25 0 0 0-.111-.088.354.354 0 0 0-.044.143l.063.064-.007.11h-.054v.007c.009.013.016.031.023.047l-.061.048v.032c.017.011.037.021.054.031a.483.483 0 0 0 .032-.032c.036.032.107.043.14.08-.01-.004-.02-.005-.031-.007.011.024.009.013.023.031l-.022.078c-.028-.016-.032-.027-.078-.032v.01c.007.007.015.016.024.022l-.039.024c.042.076.051.192.103.26.037.017.072.037.109.056a.338.338 0 0 0-.061-.017h-.002v.007c.009.031.015.064.023.094l.039.016.032-.071c.007.02.015.037.023.055h-.032l-.007.008c.031.045.037.067.04.132l.093-.031c.02.018.015.021.047.031l-.016.032a.995.995 0 0 0-.066-.02l-.012-.003c-.004.005-.005.01-.007.015.027.05.069.081.118.11l-.016-.032.132.11v.007c-.042-.017-.082-.036-.125-.054a.256.256 0 0 0 .157.102c-.002.02.002.002-.007.022.06.061.313.228.382.211-.003.032.002.009-.007.033.074.07.313.159.429.188v-.007c-.018-.02-.038-.037-.055-.054.085.027.139.004.195.054v-.032c.036.005.072.011.109.015h.007a.216.216 0 0 0 .007-.015v-.022c-.213-.027-.282-.212-.454-.26l.025-.031c-.049-.053-.113-.049-.156-.102-.005-.003-.01-.006-.015-.007.007-.006.016-.01.023-.015.039.015.078.031.115.044v-.006c-.061-.08-.162-.135-.173-.267l.01-.016c.036-.009.072-.013.108-.024.029-.022.02-.067.013-.125.05-.033.156-.055.195-.101.012-.018.012-.069.006-.119-.127-.084-.315-.11-.273-.299a.213.213 0 0 1 .217-.031h.033c-.011-.031 0-.018-.024-.033.015-.033.022-.028.054-.038.006-.049-.01-.092-.023-.135.032-.048.06-.069.14-.072-.02-.037-.066-.044-.094-.07l-.016-.009.054-.024c.04.028.054.045.079.087.02.004.042.006.064.007.006-.007.015-.014.022-.023 0-.048-.004-.07-.023-.094-.006-.006-.011-.015-.016-.023a4.584 4.584 0 0 0-.095.009l.009-.001.038.031v.007l-.054-.015c-.023-.02-.024-.04-.077-.055-.027-.048-.028-.139-.049-.2.059-.071.192.076.275.097.05-.003.115-.006.18-.007h.005l.039-.089-.031.016a.468.468 0 0 1-.032-.031c.037-.054.091-.114.06-.19.011.005.022.01.032.017h.007a.507.507 0 0 0-.017-.051l.001.003c.113.045.611.117.749.038.031-.016.15-.162.194-.196v-.111c-.066-.023-.098-.027-.103-.112.021-.017.04-.037.061-.056-.032-.139-.174-.153-.237-.262a.603.603 0 0 0 .032-.039l.023-.01c.021.034.043.044.055.089.049.01.098.02.148.033.044.029.098.122.157.134.047.01.082-.021.134 0 .037.018.063.064.125.055.158-.017.186-.092.279-.157l.164-.071c.039-.053.081-.105.123-.158l.311-.135c.124-.082.189-.229.303-.317.143-.111.325-.131.381-.333a.12.12 0 0 1-.034-.008h.001c.022-.079.027-.18.07-.288.033-.085.583-.363.726-.321.031.023.061.049.093.071.005-.017.012-.036.016-.053-.011-.004-.021-.006-.032-.011v-.007c.07-.017.141-.123.211-.099.024-.024.026-.015 0-.04v-.023c.148-.001.427.058.565.124.013-.021.012-.021.039-.031-.007-.124.141-.076.233-.119.06-.045.065-.191.156-.235.147-.073.14-.12.243-.189.045-.028.088-.026.116-.07.105-.169.034-.245.25-.324.036-.116.064-.208.131-.293l.096-.11.006-.007c.037-.104.013-.191.054-.284.043-.103.132-.169.141-.3.096-.05.18-.033.273-.099.134-.115.266-.233.4-.349l.141-.028.18-.141c.216-.14.392-.262.477-.534.001-.053.005-.105.007-.159.023-.099.14-.744.138-.744a626.767 626.767 0 0 0-10.529.061zm5.373-16.881c.098.013.228.028.336.076.109.049.136.119.254.137-.026.018-.04.007-.078-.001a.146.146 0 0 0 .125.082.477.477 0 0 1-.032.016c.031.028.05.05.093.069h.032c-.01-.032-.004-.023-.029-.039v-.006c.226.074.433.233.692.273.012-.034-.005-.016.032-.022V1.86c-.076-.102-.256-.211-.38-.262-.004-.009-.005-.02-.007-.029l.147.078v-.031c.141.082.303.183.444.264l.039-.006h.015l.001-.007c-.05-.033-.076-.028-.109-.078.022.01.042.017.064.024l.009.001c.001-.028-.005-.033-.024-.06a.075.075 0 0 1 .009-.015c.018.012.013.007.023.028.048-.004.033-.009.055-.036.012.031.013.031.038.047h.009a.252.252 0 0 0-.016-.029h.055l.001-.016c-.047-.028-.086-.06-.148-.078l-.009-.015.048-.005v-.009c-.043-.037-.181-.147-.281-.132.002-.045-.022-.105-.076-.12h.063l.009-.016-.031-.029-.001-.001c.103.009.192.089.282.094-.032.102.169.131.239.186.053-.007.049-.024.087-.029l-.022-.016c.011-.023.004-.013.023-.028.04.016.078.031.116.01v.029l.055.001-.023-.031c.024-.012.002-.005.031.001l.025-.006c-.01-.016-.02-.032-.032-.047a.28.28 0 0 0 .157.002c-.02-.065-.107-.092-.185-.087-.011-.02.005-.01.022-.02-.026-.001-.051-.004-.077-.004-.027-.012-.048-.06-.132-.063.016-.016.002-.009.032-.015a.263.263 0 0 0-.148-.063l-.015-.015a.377.377 0 0 1 .028-.013l.002-.001c-.082-.017-.103-.04-.157-.012-.048-.037-.043-.06-.124-.069a.16.16 0 0 0 .015-.021l.001-.001-.186-.047v-.009a.221.221 0 0 1 .047-.007h.001c.001-.028.004-.02-.009-.043.059.015.115.031.173.044l.015-.013a.19.19 0 0 0-.14-.054c.002-.006.006-.014.007-.022.029.009.059.016.086.022.004-.001.006-.004.009-.005V.953c-.069-.051-.085-.053-.194-.048.024-.032.033-.023.078-.028l.001-.007c-.081-.059-.199-.031-.281-.077-.001 0-.072-.083-.085-.09a1.2 1.2 0 0 0-.295-.076l.017-.022c-.076-.034-.151-.059-.233-.097h.064V.501c-.038-.058-.391.089-.458.178-.023-.014.146.131.099.122a.383.383 0 0 1-.016.021h-.016c.022.038.186.029.225.031l.009.016c-.031.015-.039-.01-.08-.001h-.015c.022.055.071.043.124.023a.59.59 0 0 0 .025.06c-.036-.015-.055-.015-.102-.016.016.053.11.063.177.069.002-.011.006-.022.009-.031l-.077-.015.009-.045c.047.016.069.043.131.054.014.038.026.078.037.116a21.89 21.89 0 0 1-.369.042l-.009.018.001-.003c.025.026.052.05.076.076v.007c-.086-.026-.179-.005-.259-.017-.17-.029-.299-.119-.469-.017.004.007.007.012.009.022.049.088.197.054.295.067zm-5.135 5.506c.056.047.223-.049.304-.049.036.048.11.235.154.244.064.147-.115.222-.097.335.005.004.01.005.015.007.032-.027.027-.026.018-.061.005-.005.01-.006.015-.009.015.042-.004.033.039.037l-.087.066c-.013.032.007.108.015.176.012.007.026.012.039.017l.015-.033c.002.006.005.01.009.016-.031.038-.033.055-.056.094.02.004.012 0 .033-.009.017.028.026.044.015.086.004.12.127.12.07.246.043.065.183.023.217.027 0-.097.124-.197.165-.293.054-.12.003-.287.003-.436a1.42 1.42 0 0 0 .048-.017c-.017-.109-.037-.222-.053-.333.039-.424.379-.528.718-.63.159-.048.099-.185.393-.126.073-.138.32-.113.464-.147l.009-.016c-.031-.021-.023-.01-.039-.047v-.009a.527.527 0 0 1 .205-.044l.04-.061c-.025-.04-.081-.06-.142-.063v-.01c.052.01.101.017.151.024v.063c.005-.004.022-.164.027-.246l-.048-.015c-.023-.017-.005-.006-.007-.039-.002-.032.055-.112.081-.146-.023-.018-.002-.145.001-.184.043-.036.079-.068.115-.101l-.003.003c-.089.126-.044.126-.073.275a.965.965 0 0 1 .07.024c-.045.038-.092.056-.119.115-.003.004-.006.008-.007.013.015.012.009.011.039.016.044-.094.228-.158.31-.29-.05-.051-.029-.082-.045-.152.036.033.05.061.109.076l-.032.039v.006c.121.017.286-.141.342-.226-.01-.031 0-.015-.023-.032l-.007-.016c.141-.017.343.024.498.007-.013-.016-.027-.031-.039-.048-.119.017-.224-.031-.341-.004.14-.11.565.044.753-.027.021.05.065.047.157.05l.032-.047-.023-.038c-.018.042-.002.044-.048.044-.021-.001-.043-.006-.064-.009-.011-.048.006-.11-.078-.125v-.015c.005-.003.043-.012.081-.021l.032-.006-.032-.047c.054-.066.164-.101.214-.15a.414.414 0 0 0 .325-.045c.02.022.016.016.016.045.152-.011.298.001.458-.042l-.022-.047c.018-.001.099.028.125.034.12.024.353 0 .454-.033l.013.016c-.013.004-.05.014-.087.022l-.023.005a.216.216 0 0 0-.007.015l.125.028c-.151.023-.3.048-.451.07l-.007.015.055-.014-.032.014c-.038.048-.049.049-.049.13l.047.001c.032.043.012.07.071.071.109.005.212-.066.335-.074.015-.033 0-.038.038-.051.007.007.011.015.017.022l.031-.029c.011.05.034.05.08.064.066-.069.487.018.61-.016a.08.08 0 0 0 .016.001c-.024-.026-.045-.033-.096-.034.021-.013.026-.007.039-.031.098.034.202.014.332.015v-.024c.007-.045-.064-.085-.116-.088v-.009l.064-.075c-.018-.027-.016-.012-.016-.045-.015-.005-.032-.007-.048-.011-.078.04-.256.081-.262.191-.055.007-.083.005-.087-.059-.18.02-.252-.072-.402-.089l-.032-.039.032.001c.004-.006.005-.012.009-.016a3.668 3.668 0 0 1-.175-.07l.033.013c-.024-.016-.05-.089-.07-.126l.039-.028c-.021-.02-.043-.024-.086-.026v-.015c.083-.012.121-.056.199-.086l.016-.029V4.03c-.082.024-.151.01-.268.009-.016-.056-.056-.077-.119-.088l-.009-.016c.108.011.146.056.238.067l.246-.031v-.022c.024-.017.002-.018-.009-.047a.266.266 0 0 0 .032.009v-.007c-.192-.259-.868-.167-1.161-.115-.115.022-.197.131-.357.131.069-.065.483-.221.613-.261 0 0 .26.02.276.016l.071-.076c.108-.056.265-.034.404.002.183.051.353.07.533.132.113.038.452.176.569.157a1.02 1.02 0 0 0 .254-.076c.191-.077.572.12.704-.025.01-.027.006-.002-.009-.038l.016.009c.023-.038-.001-.164.026-.206l-.134-.051c.001-.022 0-.005.007-.031-.081-.006-.087-.026-.141-.023-.016-.089-.099-.124-.196-.136v-.009c.069.009.136.016.205.023-.037-.053-.124-.059-.134-.111-.065-.015-.121-.004-.174-.038-.028-.018-.021-.021-.022-.047-.033-.023-.119-.016-.149-.043-.036-.031-.042-.059-.094-.081-.01-.033-.02-.012.009-.037a.597.597 0 0 0-.203-.127c.022-.022.012-.014.039-.016.006-.017.004-.061.009-.12l-.055-.025c-.005-.002.017-.042.017-.092-.07-.028-.148-.055-.14-.14h-.039c-.047-.072-.227-.302-.223-.375-.192.051-.439.359-.701.15-.044.004-.075-.064-.156-.08-.005-.022-.006-.043-.009-.066-.017-.004-.036-.006-.054-.009.023-.065.048-.073.042-.158a.592.592 0 0 0 .087-.036c-.007-.011-.013-.024-.022-.036l-.071.027c-.052-.058-.165-.081-.259-.107-.001-.006-.005-.011-.006-.015v-.009c.016-.013.011-.011.039-.015v-.007a1.001 1.001 0 0 0-.262-.173l-.196.004c-.164-.055-.316-.119-.483-.113l-.048.044-.009.029c.014.02.011.02.038.029-.033.044-.076.061-.143.074.063.072.018.08.053.126a.8.8 0 0 1-.285.102c-.009.014-.016.028-.024.043.101.033.185.107.19.232-.083.18-.273.211-.499.249-.082.004-.162.005-.244.007h-.015c.006.034-.004.08.044.096-.043.081-.129.176-.071.268-.04.032-.098.074-.151.074l-.001.067a.08.08 0 0 0-.031.009h.001c-.002-.029-.017-.026-.031-.063-.064.009-.099.036-.141.063-.028-.015-.053-.026-.078-.038-.026-.124-.105-.197-.158-.311.04-.038.075-.066.105-.113-.001-.02-.005-.039-.007-.059.045-.047.094-.066.129-.127-.161-.012-.627-.156-.721-.246-.033-.029-.04-.101-.09-.137a7.892 7.892 0 0 1-.286-.131l.07.031-.243.005h-.016c.058-.059.093-.145.14-.213a.346.346 0 0 0-.163-.021l.001-.036c.153-.178.646-.359.855-.347a.339.339 0 0 1-.031-.034c.076.006.159.016.241.005.028-.039.024-.039-.005-.074h-.016V1.03c.121.037.533.031.721-.065.026-.017.009-.007 0-.028l.245-.054h.015l.001-.007c-.016-.012-.024-.016-.055-.02l-.006-.015.163.013c0 .04.115.114.168.13.017-.017.004-.002.01-.021a.023.023 0 0 1 .007-.007c-.021.001-.01-.001-.033.007-.012-.031-.017-.033-.052-.058V.898c.026.011.052.023.077.036l-.006-.061V.869l.092.064V.912c.134-.033.259-.029.36-.058-.018-.023-.04-.044-.06-.066.006-.005-.729-.409-1.586-.397-.552.011-2.539.691-4.108 1.483-1.199.608-2.121 1.364-2.177 1.418-.479.417-.939.927-1.18 1.55-.029.031-.055.063-.083.096-.021.04-.158.4-.159.415.023.001.045.004.067.006-.015.105.049.107.022.239-.043.186-.175.414-.235.62-.011.043-.055.147-.043.202.014.07.04.164.014.255-.031.05-.059.102-.088.153-.037 0-.05.01-.089-.002l-.007.002c-.011.105.028.168.022.26.022-.001.015 0 .036-.012a.416.416 0 0 1-.088.458c.036.153.116.239.087.476v.007l.016.005c.14-.146.104-.127.118-.314l-.015-.051c-.014.013-.024.028-.036.043-.004.002-.006.004-.009.004-.02-.123.103-.423.127-.55.016-.082-.029-.227-.007-.325.053-.232.078-.733.271-.879l.029.05a.152.152 0 0 0 .029-.02c.04.137-.127.34-.107.52a.261.261 0 0 0-.088.099.335.335 0 0 1 .022.02.467.467 0 0 1 .044-.045c-.001.045-.024.192.02.238.013.018 0 .009.024.004.005.005.01.009.014.015-.025.051-.045.08-.044.161.015.014.009.014.037.017l-.022.097.037-.005c0 .104-.04.136-.089.207.013.094.055.119.096.189-.029.032-.028.051-.037.099.075.101.17.789.028.891-.034.049-.036.039-.016.086-.025.034-.039.032-.074.043-.109.265.126.335.132.55.016.009.033.023.051.036 0 0 .87-.031 1.387-.042.02-.001-.038-.02-.064-.04-.022-.02-.124-.548-.105-.621a.938.938 0 0 0 .054-.085c-.077-.164.039-.336.107-.485.053-.129.108-.259.159-.388.05-.063.146-.045.176-.156.018-.075-.015-.142.023-.237.034-.086.127-.112.121-.221.05.006.137-.033.146-.076.009-.012.016-.026.024-.04.001.032.002.021-.009.048.038-.018.023-.023.045-.02l.032-.042c-.009-.011-.016-.023-.023-.034.135.012.234-.04.351-.108.071.018.045-.034.039-.073.017-.021.036-.028.063-.044.001.005.004.007.006.01l-.029.032c.009.005.02.009.029.015.033.026.157-.04.23-.033.072.007.228.067.283.097l.023-.001v-.031a.614.614 0 0 0-.052-.005h-.002l-.009-.025.001.002a.785.785 0 0 0 .064-.02c.006.028.05.074.075.103l-.015.009c-.005.009-.011.017-.015.026.024.017.049.038.075.056.037-.015.072-.031.109-.044l.014.053c.054-.015.059-.044.093-.075.032.033.056.081.099.102a.3.3 0 0 1 .023.015h.01a.624.624 0 0 0 .029-.042c-.026-.023-.051-.048-.075-.072l-.017-.015c.022-.028.04-.036.086-.044.013-.027.01-.027.009-.07-.021.012-.043.023-.062.036h-.007c-.005-.009-.01-.013-.016-.023.12-.076.262-.058.387-.033.007-.021.015-.038.023-.056a.184.184 0 0 0 .025-.017c-.003.033-.003.069-.003.101.175.021.304-.048.434.09.032.034.03.092.045.107z"/>
      <path d="m26.244.877-.103.036-.009.038v.007c.055.028.222.064.297.023.016-.015.032-.028.047-.044V.914c-.073-.017-.13-.037-.232-.037zm.413.024c.013.016 0 .006.022.016l-.022-.016zm-1.283.309a.254.254 0 0 0-.139-.027l.024-.059c-.061-.039-.184-.075-.223-.132-.028-.027.002-.064-.044-.086l-.016.022c-.143-.015-.306.058-.349.153-.074-.001-.141-.001-.179.029.04.031.148.021.202.022l-.033.022-.023.044a.667.667 0 0 0 .376-.06l.131.037a.27.27 0 0 0-.041.016l.002-.001c.074.063.202.064.343.059-.01-.014-.02-.025-.032-.039z"/>
      <path d="M24.984.973 24.96.95a.263.263 0 0 1-.017.045l.001-.002c.018-.006.037-.012.055-.02zm2.081.258c.028-.017.021.002.016-.028-.098-.004-.081-.045-.156-.061a.407.407 0 0 1-.055.028c.013.033.013.037-.001.065.102-.004.134.004.227.021a.227.227 0 0 1-.031-.025zm.666-.062a.127.127 0 0 1-.007.012h.015c-.002-.004-.004-.009-.007-.012zm-.618.057c.012.015 0 .004.023.015l-.023-.015zm-2.255.031-.126.036c.001.017.002.034.005.051.119-.012.228-.005.331-.036l.007-.016-.217-.036zm.884.007v.022a.938.938 0 0 0 .055.001V1.28l-.055-.016zm1.139.123c-.02-.045-.077-.071-.13-.085l.005.051h-.07c.001.005.006.01.009.015.077.01.141.02.201.04l-.015-.022zm-1.274-.079c-.002.006-.006.01-.009.015l.054.044.071.007c.002-.004.005-.005.007-.007l.001-.023c-.042-.011-.083-.024-.125-.036zm.25.024-.077-.015c.014.033.034.039.061.059h.031c.002-.004.006-.009.007-.015a.17.17 0 0 0-.022-.029zm-.565.065c-.026.009-.053.017-.079.027a.433.433 0 0 1-.017.031c.009.011.015.024.022.038.059.009.09-.024.142-.037a.183.183 0 0 0 .024-.031l.001-.001c-.027-.015-.044-.026-.093-.027zm1.189.043-.001.016c.009-.002.017-.006.026-.007v-.007l-.024-.001zm-.362.057c.016.022.036.026.063.036h.031a.213.213 0 0 0-.093-.036zm3.87.175c.012.016 0 .004.025.016-.015-.016 0-.006-.025-.016zm-4.664-.055.015.015h.047l.001-.009c-.021-.001-.04-.005-.062-.006zm7.667.59c-.061.017-.088-.022-.141-.054l-.04.005c.01.007.017.016.026.025-.087.018-.192-.039-.282-.061-.004.002-.005.006-.007.007.004.01.009.023.015.033-.038-.029-.069-.058-.125-.069v.009c.017.015.031.031.047.048v.007c-.042-.013-.034-.02-.063.006-.09-.075-.162-.17-.313-.188.015.013.026.027.04.042-.022-.009-.042-.02-.065-.026a.678.678 0 0 0-.061.052.057.057 0 0 0-.008.013c.103.024.205.051.306.076-.05.037-.104.022-.189.006l-.007.01.007.015c.142.034.2.074.298.123l.007.017c-.025-.009-.051-.013-.077-.02l-.01.007.016.032c.213.056.733.316.913.11v-.007a1.598 1.598 0 0 1-.287-.218zm-6.269-.362v.017c.006-.007.01-.012.017-.017zm.731.043c.015.021.009.017.038.024v-.007c-.015-.012-.01-.011-.038-.017zm.18.036c-.022-.007-.043-.011-.063-.017-.011.027-.001.023-.054.021l-.001.007c.022.027.06.052.101.064a1.33 1.33 0 0 0 .039-.031zm-.614.046c-.013-.005-.026-.006-.038-.009a.078.078 0 0 0-.024.016.156.156 0 0 0-.016.02v.001c.027.021.07.015.11.009l.007-.014-.039-.023zm12.172 6.74a3.724 3.724 0 0 1-.098-.202l-.016-.04a.396.396 0 0 0 .022.034l.015.009v-.016c.01-.038-.037-.088-.061-.121a.142.142 0 0 1 .016-.005l.055.056.006.002-.039-.098c.031.028.056.056.086.085-.038-.086-.141-.261-.23-.299.012-.032 0-.018.031-.011-.027-.101-.178-.19-.192-.34l.007.001c.013.082.073.06.108.096h.01a2.85 2.85 0 0 1-.083-.117l-.01-.015.045-.036c.038-.024.065.058.115.058.005.034.009.037.013.072a.753.753 0 0 0-.016-.249c-.04-.047-.069-.115-.104-.175a3.588 3.588 0 0 1-.292-.585c-.022-.056-.737-1.17-1.646-2.023-.94-.879-2.077-1.495-2.061-1.499-.024.027-.042.05-.083.063.005.049-.005.049.016.08-.024.01-.04.021-.069.034.028.043.067.07.094.104l.017.081c.072.108.221.162.278.293.039.009.036-.001.061-.018.012.029.023.063.034.096.039.049.244.167.321.119.036-.02.039-.076.022-.121.015-.009.031-.015.045-.022-.006-.011-.01-.023-.015-.036v-.009c.218.104.327.376.559.469l.032.082c-.034.012-.042.037-.06.062a.403.403 0 0 0 .162.133l.002.001c-.021.031-.015.015-.055.004l.001.007a.136.136 0 0 0 .063.055l.044.002v-.059c-.021-.022-.047-.069-.085-.086 0-.026-.005-.007.015-.027l-.047-.054a.2.2 0 0 1 .087.099c.029.001.06.005.093.005l.007.001v-.023c-.023-.024-.043-.051-.064-.076.011-.021.01-.01.007-.036.027.002.058.007.085.011l-.032-.06c.016.014.33.294.314.304-.043.022-.033.043-.022.088-.016.004-.029.009-.041.013l.003-.001c-.053.063-.069.004-.131-.001-.027-.027-.015-.011-.009-.038-.025-.02-.048-.043-.071-.061l.001.043c-.016-.002-.031-.006-.047-.01.01.045-.011.028-.023.086a.498.498 0 0 1-.037-.009c-.016-.017-.024-.058-.026-.075-.016-.018-.01-.016-.039-.024.006.009.01.021.017.031-.064.001-.113-.051-.156-.088-.018-.005 0-.004.006-.015-.021-.02-.032-.027-.071-.033-.001-.006-.005-.01-.006-.015l.006-.015.157.094c-.031-.069-.105-.172-.187-.147-.02-.022-.027-.08-.049-.113.011.007.02.011.032.017l.006-.035c-.072-.083-.174-.127-.214-.244l-.044.022.016.064-.032-.001-.037.02c.026.138.309.352.293.414.018.004.037.007.054.012.032.054.066.085.103.143-.029.012-.02-.004-.015.044-.048-.016-.056-.022-.116-.021v.037c-.036.004-.072.009-.107.01-.005.01-.011.021-.015.034l-.001.002.031.053c.032.015.025.015.055.004.02.043.037.051.033.089-.022.027-.006.015-.039.006l-.009-.001c.007.055.006.065.032.098a.574.574 0 0 0-.057-.009h-.005l-.08-.233a.048.048 0 0 0-.018-.007h-.005c.024.103.111.268.049.327-.04.038-.12.045-.154.091.023.049.043.097.064.145a.138.138 0 0 1-.085.043c-.02.026-.039.05 0 .075l-.022.023c-.096.02-.203-.064-.275-.089-.002.003-.004.006-.007.007.044.065.103.103.126.185.01.006.017.016.025.022v.007c-.063-.009-.098-.018-.141.016-.029-.024-.063-.047-.094-.071-.051.028-.136.017-.18.063h-.015c.013.066.061.059.103.092-.017.002-.033.006-.048.009.083.076.207.056.322.099.005 0 .371.343.376.36a.513.513 0 0 1-.042-.033l.001.001c-.001.004-.004.006-.007.007a.934.934 0 0 1 .195.555c-.136.05-.452-.038-.63-.061-.048-.005-.165.048-.237.024-.034-.014-.049-.042-.103-.029-.042-.01-.065.038-.047.076-.038.011-.086.016-.101.044a.145.145 0 0 0-.032.02c.002.08.05.074.061.134.022-.005.016-.005.039-.017.017.134.096.228.141.354.04.112.017.442-.006.553.036.029.053.053.085.089l.047-.028c.04.104.069.212.064.377.072-.027.163.016.202.002.028-.009.042-.043.09-.054.132-.06.197.26.343.286.029-.031.142-.138.152-.165.105-.002.178-.016.264.011l.017-.033c.042.004.045.009.069.027.025-.053.045-.151.065-.196.027-.012.037-.015.086-.015.002-.045-.031-.114-.004-.195.013-.045.049-.048.063-.105-.237-.161-.023-.363-.089-.49.045-.059.083-.039.14-.081.034-.024.071-.098.102-.13-.014-.086-.146-.21-.115-.302.011-.026.048-.043.063-.075.119.039.194.091.298.13.05-.047.038-.138.132-.153l.022-.107-.001-.015c.211.034.333.322.44.468 0 0 .293.281.304.288.007.005.039-.012.07.007l.053.092c.225.208.292.272.388.596-.023.012-.07.018-.091.058-.077-.004-.077-.012-.125-.05-.011.015-.009.01-.014.038l-.032-.026-.007-.001c-.004.036-.011.072.007.104.015.024.297.25.33.265h.009c-.017-.118-.077-.179-.077-.325l.047.036h.006a.308.308 0 0 0-.02-.191c.005-.042.001-.031.029-.044-.025-.099-.075-.11-.121-.176a3.633 3.633 0 0 0-.057-.214l.009.035.017-.013c.032.049.12.141.169.173-.042-.169-.208-.314-.354-.386-.017-.031-.022-.051-.021-.104-.048-.024-.085-.005-.132-.044-.112-.092-.162-.237-.251-.353-.077-.098-.222-.137-.261-.273.002-.017.007-.036.01-.053-.018-.043-.064-.051-.078-.108.043-.007.04-.02.06-.049.01.002.021.004.032.004h.001c.028.037.085.145.105.196.006.002.012.004.016.009.001-.017.006-.037.007-.053a.86.86 0 0 1 .039.081c.009.006.013.012.023.017a2.204 2.204 0 0 1-.029-.071c.071.026.099.152.136.196.055.07.14.108.19.159-.009-.002-.018-.007-.028-.011.02.037.034.047.053.077.014 0 .026.002.038.004a.404.404 0 0 0-.037-.035h-.001l.015-.006a.546.546 0 0 1 .048.036c.002.006.005.01.006.016-.016.005-.031.007-.045.011.033.034.027.002.067.023a.998.998 0 0 1 .278.268c.039.114.085.227.129.341.051.098.17.197.213.302.023-.001.002.002.023-.005.002.009-.018.043 0 .077.022.033.069.08.123.088-.011.043-.015.032-.015.093a.836.836 0 0 1 .137.252.081.081 0 0 1 .023.017h.007c-.006-.017-.009-.039-.014-.056.003 0 .005 0 .007.002.016.038.034.078.054.119a.08.08 0 0 1 .014.009c-.005-.021-.01-.04-.014-.064a.5.5 0 0 0 .045.058h.008zM24.196 2.561a.39.39 0 0 0-.157-.037l-.04.016c.023.044.141.081.196.096h.006c.01-.034.004-.047-.005-.075zm3.867.229c.015.026-.005.009.024.023h.007l.009-.015-.04-.009zm.414.373.016.022h.001l.008.001v-.009l-.024-.015zm-.261.135-.056.013c-.006.053-.007.015-.022.045.108-.005.212-.021.305-.027a2.739 2.739 0 0 0-.162-.025l-.065-.007zm.511.158c0 .022-.007.01.007.031a.104.104 0 0 1 .025-.015v-.009a.141.141 0 0 0-.031-.007h-.001zm-1.637.256a.069.069 0 0 0-.007.015c.178.11.3.205.534.276l.016-.006v-.022c-.124-.109-.335-.25-.543-.262zm1.974.125c-.002.009-.006.016-.009.023.028-.014.011.005.025-.022l-.016-.001z"/>
      <path d="M35.693 5.311c-.037-.002-.073-.007-.109-.01.016-.033.056-.085.043-.135-.017-.076-.157-.229-.241-.132-.007-.001-.016-.005-.026-.009a.714.714 0 0 0-.244-.293 1.917 1.917 0 0 0-.113-.048l-.031-.011c-.128-.121-.188-.217-.381-.219.021-.016.042-.029.064-.044a.662.662 0 0 0-.039-.03l-.002-.001c.031-.062-.006-.112.006-.17-.07-.071-.201-.051-.293-.033 0-.044.015-.027-.023-.044.01-.036.024-.058.053-.075l-.016-.053c-.081-.017-.159.017-.236-.007-.017.021-.015.026 0 .053-.012.032-.007.036.018.067l-.019.008.001-.001c-.027-.004-.013-.007-.031.015.015.026.031.051.048.077v.007a3.874 3.874 0 0 1-.103-.075c-.017.031-.009.012-.033.048a.338.338 0 0 0 .168.071c.006.011.012.02.017.032-.015.007-.027.016-.04.023.017.039.031.039.025.083.026-.002.053-.007.078-.01.004-.012.006-.026.009-.037v-.016l.007-.001c.013.086.059.145.082.235h.032l.007-.016-.016-.038.048.029h.007l-.025-.075.064.044c.018.034.017.069.002.114.023.02.048.039.07.06h.011l-.017-.026-.002-.004v-.007c.026.01.049.018.074.029v-.031c.051.02.071.007.11-.023.053.065.031.169.159.15.001.064.017.086.039.126-.061.05-.123.015-.187.002.009.05.026.042.056.069-.012.011-.022.024-.033.038l.01.013a.757.757 0 0 1 .061-.023c.022.028.045.055.065.082-.008.049-.05.07-.102.077a.51.51 0 0 0-.023.024l.081.066c.082-.043.158.011.25.043.021-.01.043-.022.064-.031-.012.026-.01.023-.007.054h-.158c.001.07-.045.148-.107.207v.016c.04.002.045-.004.088.021.02-.031.009-.055.067-.07.042-.012.086.012.126.022.003-.027-.007-.077.016-.092 0 0 .249.02.259.026h.023l-.02-.046.003.007c.12.005.179.002.273-.045l.007-.015-.016-.045zm-6.161-.555c-.038-.01-.044.024-.11.034a.34.34 0 0 0-.007-.034v.002a.164.164 0 0 1 .086-.066.042.042 0 0 0 .009-.014.038.038 0 0 0-.009-.009c-.098.005-.118.027-.174.07a.498.498 0 0 0-.016-.033c-.02-.005-.005.007-.022-.009.054-.048.167-.077.189-.099.005-.004.011-.01.017-.013-.034-.032-.118-.026-.174-.032.018-.05.001-.014-.009-.077.045-.009.063-.016.088-.043-.051-.047-.136-.094-.206-.081-.032-.031-.005-.05-.054-.071-.023.01 0 .015-.026.007-.005.021-.007.012.01.031l-.048-.002c-.045.002-.029.005-.024-.038-.039.004-.023-.005-.031.02-.029-.016-.047-.026-.079-.024a.252.252 0 0 1 .015-.024c-.029-.015-.01-.009-.038-.001l-.017-.016v-.031l.094-.005v-.007c-.047-.034-.101-.034-.149-.076l-.141.056c.022-.077.159-.148.237-.165.011-.013.022-.027.033-.038-.023-.018-.023-.022-.063-.027v-.015c.04.011.069.023.11.02a.065.065 0 0 1 .016-.013.062.062 0 0 1 .008-.024c-.043-.014-.086-.025-.126-.037l-.142.002c-.031.006-.114.055-.159.078-.085.04-.119.15-.229.174-.015.029-.013.022-.001.054v.007c-.031-.006-.023 0-.039-.016-.049.011-.076.045-.103.078a.3.3 0 0 0 .048.04c-.066-.011-.147.028-.223.039.006.023.011.051.016.075.13.034.659.141.702.186l-.031-.002c.053.022.105.043.158.063.012-.015.01-.01.015-.038l.103.043a.561.561 0 0 1-.245.037c-.004.009-.006.02-.009.029.167.062.3-.015.442-.056.012.012.022.027.033.04-.002.064-.04.087-.08.112.011.032.006.024.031.04.037-.01.075-.023.11-.033a.162.162 0 0 0-.023.092c.043.011.076.016.118.029.059-.029.076-.09.129-.127l-.01-.061zm4.439-.729-.042-.007c-.02.018-.04.037-.061.054.022.028.037.037.039.063a.091.091 0 0 1 .023.015l.056-.047a.816.816 0 0 1-.015-.072l-.001-.005z"/>
      <path d="M28.983 4.003v.015l.016-.015zm4.948.162L33.9 4.15l-.031.016a.368.368 0 0 1 .066.092l.022.006a2.249 2.249 0 0 0-.033-.123l.006.024zm-4.955-.131c.007.009.015.016.023.024.005-.005.011-.006.017-.009v-.007l-.04-.009zm6.928.255c.005.009.01.016.016.023h.007c-.015-.026.004-.007-.023-.023zm-1.829-.027.025.029.008-.014a.215.215 0 0 1-.034-.017l.001.001zm-.141.011v.016c.006-.005.015-.006.023-.009v-.007zm.16.059c-.003.001-.006.005-.009.007v.007a.07.07 0 0 0 .009.007h.007a.08.08 0 0 1 .007-.022zm-.033.022v.023h.017c-.011-.023 0-.009-.017-.023zM28.2 4.217l-.045-.001a.048.048 0 0 0-.018.007.114.114 0 0 0-.007.022c.037.005.073.009.11.012l-.039-.04zm1.036.083a.57.57 0 0 1-.01.032l.065.002c-.015-.036-.011-.028-.055-.034zm5.017.12c-.02.031-.024.042-.064.054.014.043.023.032.056.051.022-.02.032-.075.007-.105zm-.056.009c-.004.001-.006.005-.007.007v.007l.016.007c.002-.004.004-.006.007-.007a.22.22 0 0 0-.016-.015zm-7.137-.076c-.029-.017-.016-.001-.024-.04-.037-.034-.02-.021-.007-.07a.073.073 0 0 1-.022-.009c-.029.015-.059.024-.088.037l-.008.014v-.001c.083.076.158.12.274.163.026.016.01 0 .016.024.02.022.031.027.064.042.072-.015.061-.053.167-.049l.007-.007v-.01a6.59 6.59 0 0 0-.379-.094zm7.303.126h-.017v.032c.012-.005.023-.007.033-.01l-.016-.022zm.052.357c-.003-.005-.006-.01-.007-.015.049-.016.045-.038.077-.055v-.037c-.055-.054-.104-.054-.153-.127-.058-.028-.103-.017-.15.021.005-.018.002-.01.016-.033a.806.806 0 0 1-.081-.032l.009.003c-.021.026-.065.037-.118.043-.009.051-.006.051-.032.087.029.023.06.02.097.011-.015.039-.029.028-.032.064l-.216.002c.006.045.015.017.033.045l-.023.01c.029.029.059.027.104.024l-.056.059c.064.082.115.033.208.058-.053.036-.038.037-.039.089-.035.034-.032.021 0 .047-.021.036-.013.014-.007.056l-.063-.005-.017.04c.031-.005.058-.01.087-.013a.892.892 0 0 1-.05.032l-.004.002c.094.228.425-.065.57-.06-.006-.102-.05-.265-.153-.316zm-5.078-.352-.007.022c.007-.004.015-.005.022-.006-.004-.006-.01-.011-.015-.016zm7.131.185c.006.011.01.024.015.037l.055.02c-.02-.033-.029-.042-.07-.056zm-10.193-.173a.173.173 0 0 1-.023.029l.015.009c.022-.017.02-.005.033-.038zm.584.033a.181.181 0 0 1-.009.031l.026.017c.047-.006.094-.015.142-.021l-.159-.027zm7.753.204c-.007.016-.011.031-.016.048l.007.021a.259.259 0 0 0 .04-.009.585.585 0 0 1 .007-.022l-.039-.038zm-8.836-.226c-.005.024-.006.017.009.038a.22.22 0 0 1 .016-.015.51.51 0 0 0-.024-.023zm1.93.082h-.016c-.001.006-.005.01-.007.015.023-.003.039.01.023-.015zm-1.882-.05v.016l.015-.016zm1.859.074c-.012-.001-.027-.001-.039-.004a.497.497 0 0 1-.045.029l-.002.001c.032.001.063.002.094.005v-.009a.661.661 0 0 0-.007-.023zm1.013.041.015.033.016-.017a.943.943 0 0 1-.031-.016zm.506.032c-.012.006-.022.015-.032.021-.004.007-.005.015-.009.023h.023c.015-.007.027-.012.04-.02v-.024zm-2.833-.078c.013.006.002.006.015 0zm2.326.084-.007.016c.007.004.016.005.023.01a.06.06 0 0 0 .016-.009l-.036-.019.004.002zm.032.026v.015l.015-.013-.015-.001zm7.883.21.045.024v-.007c-.017-.016-.016-.009-.045-.017zm-.557.057c-.003.004-.006.008-.007.013.023-.007.009 0 .023-.013zm-.083.039c-.002.006-.006.01-.009.016a.044.044 0 0 1 .009.007l.015-.015v-.007l-.015-.001zm-.017.053c0 .006 0 .012.002.02l.015.002c-.01-.022 0-.01-.017-.022zm-10.615-.243v.015l.016-.015zm-.294.034-.008.024.001-.003c.011-.015.014-.004.007-.021zm.142.063a.3.3 0 0 0-.043.016l.003-.001v.014l.08.01v-.007c-.016-.023-.007-.021-.039-.031zm-.435.008c-.005.002-.01.006-.016.007v.006c.013-.004.027-.007.04-.012l-.025-.001zm.206.002c.013.007.001.007.016 0zm-.095.006.016.016h.009c-.015-.016 0-.006-.024-.016zm.426.039-.007.016a.32.32 0 0 1 .039.016h.009a.044.044 0 0 0 .006-.016c-.015-.012-.014-.012-.047-.016zm-8.748.542c-.027.087-.06.145-.076.227l.007-.001c.037-.063.124-.13.069-.226zm-.128.288c.023-.017.011-.01.015-.026l-.015.026zm7.16.125-.007.015h.022l-.015-.015zm-7.296.499c-.007.037-.017.075-.023.113l.006.015.01-.001.028-.114c-.006-.004-.013-.006-.021-.012zm21.399.216c.009.01.017.022.025.033v-.024l-.025-.009zm-18.428-.14-.015.032c.015-.017.021-.011.015-.032zm.731-.015c-.027.023-.049.026-.062.065.052.005.083-.002.13 0v-.007c-.022-.02-.044-.04-.067-.058zm-.946.109-.016.025.001-.001.029-.017c-.005-.004-.01-.004-.015-.006zm19.02.546v.026h.015c-.011-.024 0-.009-.015-.026zm-.612-.032.023.056a.436.436 0 0 0-.048.029l.001-.001c.001.099.071.227.136.265l.016.016h.007c-.002-.113-.059-.321-.136-.365zm.115.041a.044.044 0 0 0-.016.006v.022c.014.002.025.004.038.004-.011-.024-.005-.017-.022-.032zm-21.659.463c-.001.005-.005.01-.007.016l.022.027h.006c-.002-.038.002-.032-.021-.043zm21.915.402a1.177 1.177 0 0 0-.197-.496l-.023-.011c-.004.025-.01.048-.016.072-.031.017-.021.018-.061.002.006.091.098.175.129.25.028.058.007.129.024.173.032.018.038.045.099.055-.004-.021-.005-.044-.007-.065.018.002.021.005.044.02zm1.044-.322v.033c.007.005.016.01.023.017-.007-.034-.005-.029-.023-.05zm.069.063.015.032h.01c-.013-.029 0-.016-.025-.032zm-.054.081.016.04-.031-.026c.01.016.018.032.031.048l.023-.02-.039-.043zm.084.038v.022c.01.01.02.02.032.027v-.032a.466.466 0 0 1-.032-.017zm-.269.078.032.04a.078.078 0 0 0-.032-.04zm.345.162v.023c.011.005.021.014.032.018l-.032-.042zm-3.812-.121c.001.015.005.027.007.043.002-.016.006-.028.009-.044l-.016.001zm3.62.231v.061l.024.027c.007.004.015.006.022.009l.006-.014a2.682 2.682 0 0 0-.059-.094l.007.011zm.147.043c-.011-.002-.02-.007-.032-.01.023.023.048.043.07.067l.016-.015a1.13 1.13 0 0 0-.054-.043zm-.093.087.009.032c.009.01.02.017.031.026v-.033l-.039-.024zm-21.144.01v.063l.029-.002v-.009c-.009-.024-.01-.037-.029-.051zm21.437.354c.007.016.016.032.021.048l.011-.016c-.013-.01-.022-.022-.032-.032zM27.908 21.999l-.007.032a.57.57 0 0 1 .038-.031l.001-.001zm-.25.013c-.007.006-.016.011-.024.016l.017.016h.038v-.007a.74.74 0 0 0-.029-.024l-.001-.001zm.063.009v.016l.016-.016zm-1.248.753c-.002.009-.005.016-.006.026.015-.016.005 0 .013-.026zm-.016.042c-.001.006-.005.015-.006.023l.015-.017c-.003-.001-.005-.005-.009-.006zm-.566.434-.109.015c-.042.096-.138.145-.218.199v.008a.502.502 0 0 1 .039.017.378.378 0 0 0 .172-.072l-.001-.039c.051-.007.083-.032.118-.056v-.071zm-4.297.306c.016.007.002.008.017 0zm-.027.232c-.002.006-.006.01-.009.016.006.002.011.006.016.009.004-.002.005-.006.007-.009-.004-.006-.01-.01-.015-.016zm1.992.555c.009.039.006.049.039.063V24.4c-.013-.031-.001-.041-.039-.056zm-1.721.199c.014.023.001.002.025.016l.007-.007v-.009zm-.138.182c-.016-.013-.015-.013-.048-.016l.017.023h.032l-.001-.007zm.009.15v.024h.022a.523.523 0 0 1-.022-.024zm.079.111-.007.016h.016c-.004-.006-.005-.011-.009-.016zm.708 1.187-.007.008.017.017c.006-.004.015-.006.022-.009l-.032-.017zm.141.072a.23.23 0 0 1-.025-.009l.002.001c-.015.01-.032.02-.047.032.049.006.069.02.086-.023zm.189 0a1.044 1.044 0 0 1-.043-.009l.003.001c-.007.004-.016.006-.024.009.006.001.012.005.017.007a.467.467 0 0 1 .022.023c.011-.005.021-.012.033-.016l-.007-.015zm.07.124v-.007c-.063-.005-.091-.004-.134-.031-.007-.053 0-.071-.054-.086.012.058.029.121.023.157.01.001.016.004.024.007.006-.018.015-.038.022-.055.004.003.01.006.016.007a.152.152 0 0 0 .07.086l-.039-.054v-.009l.071-.016zm-.124.117.009.017c.001-.007.004-.012.006-.017zm.49.165c-.002.029-.009.012.025.023a.273.273 0 0 1-.025-.023zm.227.008c.018.026.058.023.093.031a.043.043 0 0 0 .007-.016l-.1-.015zm-.289.015c.017.039.04.053.087.061a.191.191 0 0 0-.087-.061z"/>
      <path d="M26.597-.005c-5.894 0-10.952 3.575-13.122 8.678C15.476 5.108 19.711.829 26.587.835c6.214.006 10.857 3.743 13.135 7.846-2.168-5.107-7.227-8.687-13.125-8.687zm13.594 18.579c-1.847 5.65-7.041 10.046-13.625 10.046-6.983 0-11.675-4.337-13.561-9.926 1.962 5.206 7.297 8.939 13.57 8.939 6.323 0 11.692-3.792 13.616-9.059zm15.861-.711c-.05.227-.222.368-.438.368-.316 0-.52-.23-.52-.537 0-.313.194-.533.515-.533.221 0 .403.122.438.355h-.146a.284.284 0 0 0-.292-.227c-.229 0-.355.175-.355.399 0 .219.14.413.36.413a.28.28 0 0 0 .287-.239h.151zm-.464.578c.404 0 .716-.324.716-.751 0-.418-.311-.741-.716-.741a.72.72 0 0 0-.723.741c0 .428.314.751.723.751zm0-1.62c.477 0 .875.375.875.869a.87.87 0 0 1-.875.88.872.872 0 0 1-.882-.88.87.87 0 0 1 .882-.869z"/>
    </symbol>
    <symbol id="icon-warner" viewBox="0 0 31 32">
      <path d="M27.453 6.427V4.599l-3.616-.728V2.043L15.702.405 7.568 2.043v1.828l-3.616.728v1.828l-3.615.728v.75c0 5.885 1.52 10.589 4.93 15.255l.008.01c2.767 3.712 6.441 6.727 10.078 8.269l.35.156.35-.156c3.638-1.542 7.31-4.556 10.079-8.271l.007-.008c3.409-4.666 4.93-9.37 4.93-15.255v-.75l-3.615-.728zm-2.767 15.644c-2.49 3.341-5.747 6.066-8.983 7.53-3.235-1.464-6.491-4.188-8.983-7.531-3.017-4.13-4.44-8.297-4.564-13.418l3.606-.726V6.098l3.615-.728V3.542l6.327-1.274 6.327 1.274V5.37l3.616.728v1.828l3.606.726c-.125 5.123-1.548 9.29-4.565 13.419v-.001z"/>
      <path d="M13.028 5.066v15.97a25.057 25.057 0 0 1-.438-.954c-1.361-3.218-2.173-7-2.173-10.12V7.923H8.625v2.04c0 2.408.423 5.088 1.191 7.684l-.848 1.216c-1.677-2.582-2.599-5.108-2.951-8.041v-.155H4.223v.265l.007.054c.426 3.631 1.701 6.81 4.012 10.005l.735 1.015 1.554-2.23c.132.348.27.693.414 1.034l.003.007c.643 1.487 1.418 2.906 2.242 4.103l1.631 2.373V5.067h-1.793zm10.976 8.14.104-.092c.542-.492.853-1.227.853-2.017 0-.811-.345-1.578-.948-2.104-1.783-1.558-3.767-2.886-5.737-3.839l-.18-.087h-1.509v22.226l1.412-1.038c1.904-1.4 3.68-3.188 5.135-5.172l.006-.007c1.06-1.48 1.852-2.855 2.421-4.204.141-.34.213-.704.21-1.072a2.76 2.76 0 0 0-1.766-2.593zm-1.147-2.812a.93.93 0 0 1 .318.704c0 .262-.09.494-.248.637-.278.252-.611.484-.996.753l-.008.006c-1.033.704-2.244 1.355-3.551 1.913v-7.15a24.977 24.977 0 0 1 4.484 3.138zm1.065 5.745c-.514 1.219-1.239 2.474-2.217 3.839a22.972 22.972 0 0 1-3.332 3.643v-7.236c.916-.36 1.81-.773 2.678-1.237a7.828 7.828 0 0 1 2.041-.269c.492 0 .893.412.893.919a.88.88 0 0 1-.063.34z"/>
    </symbol>
  </defs>
</svg>
